<svg width="284" height="284" viewBox="0 0 284 284" fill="none" xmlns="http://www.w3.org/2000/svg">
<circle cx="144" cy="141" r="132" fill="black"/>
<path d="M95.768 221.752L92.336 221.872L91.4 227.104H89.384L89.792 220.168H105.272L105.56 227.104H103.664L102.728 221.872L99.344 221.752V236.32L102.704 236.56V238H92.696V236.56L95.768 236.32V221.752ZM108.294 220.456L106.47 220.144V218.848L110.934 218.32H111.006L111.63 218.776L111.654 224.128L111.486 226.216C111.982 225.768 112.654 225.352 113.502 224.968C114.366 224.584 115.27 224.392 116.214 224.392C117.222 224.392 118.006 224.584 118.566 224.968C119.126 225.336 119.518 225.904 119.742 226.672C119.966 227.44 120.078 228.464 120.078 229.744V236.344L121.614 236.56V238H115.302V236.56L116.694 236.344V229.744C116.694 228.912 116.638 228.264 116.526 227.8C116.414 227.336 116.206 226.992 115.902 226.768C115.614 226.544 115.182 226.432 114.606 226.432C114.11 226.432 113.598 226.552 113.07 226.792C112.558 227.016 112.102 227.288 111.702 227.608V236.344L113.166 236.56V238H106.95V236.56L108.294 236.368V220.456ZM122.98 234.256C122.98 232.8 123.708 231.704 125.164 230.968C126.636 230.232 128.532 229.856 130.852 229.84V229.288C130.852 228.632 130.78 228.12 130.636 227.752C130.508 227.384 130.26 227.112 129.892 226.936C129.54 226.744 129.02 226.648 128.332 226.648C127.548 226.648 126.844 226.752 126.22 226.96C125.596 227.152 124.948 227.408 124.276 227.728L123.532 226.192C123.772 225.984 124.172 225.736 124.732 225.448C125.308 225.16 125.988 224.912 126.772 224.704C127.556 224.48 128.364 224.368 129.196 224.368C130.428 224.368 131.388 224.528 132.076 224.848C132.78 225.168 133.284 225.68 133.588 226.384C133.892 227.088 134.044 228.032 134.044 229.216V236.56H135.34V237.904C135.02 237.984 134.564 238.064 133.972 238.144C133.38 238.224 132.86 238.264 132.412 238.264C131.868 238.264 131.5 238.184 131.308 238.024C131.132 237.864 131.044 237.536 131.044 237.04V236.392C130.612 236.872 130.052 237.304 129.364 237.688C128.676 238.072 127.9 238.264 127.036 238.264C126.3 238.264 125.62 238.112 124.996 237.808C124.388 237.488 123.9 237.032 123.532 236.44C123.164 235.832 122.98 235.104 122.98 234.256ZM128.572 236.272C128.908 236.272 129.292 236.176 129.724 235.984C130.156 235.776 130.532 235.528 130.852 235.24V231.304C129.412 231.304 128.332 231.552 127.612 232.048C126.908 232.528 126.556 233.152 126.556 233.92C126.556 234.688 126.732 235.272 127.084 235.672C127.452 236.072 127.948 236.272 128.572 236.272ZM139.694 222.472C139.118 222.472 138.662 222.304 138.326 221.968C137.99 221.632 137.822 221.2 137.822 220.672C137.822 220.064 138.014 219.56 138.398 219.16C138.782 218.76 139.294 218.56 139.934 218.56C140.574 218.56 141.062 218.736 141.398 219.088C141.734 219.424 141.902 219.848 141.902 220.36C141.902 221 141.71 221.512 141.326 221.896C140.942 222.28 140.406 222.472 139.718 222.472H139.694ZM138.422 226.936L136.718 226.48V224.872L141.11 224.344H141.158L141.83 224.824V236.368L143.438 236.56V238H136.742V236.56L138.422 236.344V226.936ZM156.901 238.264C156.037 238.264 155.261 238.192 154.573 238.048C153.885 237.904 153.117 237.712 152.269 237.472C151.709 237.312 151.333 237.224 151.141 237.208L151.357 232.768H153.301L153.829 235.864C154.037 236.088 154.405 236.288 154.933 236.464C155.477 236.64 156.093 236.728 156.781 236.728C157.853 236.728 158.653 236.496 159.181 236.032C159.725 235.552 159.997 234.888 159.997 234.04C159.997 233.48 159.837 233 159.517 232.6C159.197 232.184 158.757 231.816 158.197 231.496C157.637 231.16 156.869 230.776 155.893 230.344C154.565 229.736 153.461 229.016 152.581 228.184C151.717 227.336 151.285 226.192 151.285 224.752C151.285 223.856 151.517 223.048 151.981 222.328C152.445 221.592 153.133 221.016 154.045 220.6C154.973 220.168 156.101 219.952 157.429 219.952C158.213 219.952 158.901 220.008 159.493 220.12C160.101 220.232 160.757 220.384 161.461 220.576C161.877 220.688 162.189 220.76 162.397 220.792L162.253 224.992H160.333L159.829 222.04C159.685 221.896 159.397 221.76 158.965 221.632C158.533 221.488 158.053 221.416 157.525 221.416C156.565 221.416 155.837 221.64 155.341 222.088C154.861 222.52 154.621 223.104 154.621 223.84C154.621 224.432 154.797 224.944 155.149 225.376C155.517 225.808 155.957 226.176 156.469 226.48C156.981 226.768 157.789 227.184 158.893 227.728C159.789 228.16 160.557 228.584 161.197 229C161.837 229.416 162.389 229.96 162.853 230.632C163.317 231.288 163.549 232.064 163.549 232.96C163.549 233.84 163.325 234.68 162.877 235.48C162.445 236.28 161.725 236.944 160.717 237.472C159.725 238 158.453 238.264 156.901 238.264ZM169.346 238.216C168.338 238.216 167.594 237.984 167.114 237.52C166.634 237.056 166.394 236.32 166.394 235.312V226.504H164.834V225.256C164.962 225.208 165.194 225.128 165.53 225.016C165.866 224.888 166.122 224.784 166.298 224.704C166.57 224.496 166.802 224.136 166.994 223.624C167.138 223.288 167.402 222.456 167.786 221.128H169.706L169.802 224.656H173.474V226.504H169.826V233.248C169.826 234.144 169.85 234.776 169.898 235.144C169.946 235.512 170.05 235.752 170.21 235.864C170.37 235.96 170.65 236.008 171.05 236.008C171.45 236.008 171.866 235.968 172.298 235.888C172.73 235.792 173.09 235.68 173.378 235.552L173.834 236.896C173.386 237.232 172.73 237.536 171.866 237.808C171.002 238.08 170.162 238.216 169.346 238.216ZM177.247 243.976C176.959 243.976 176.647 243.952 176.311 243.904C175.991 243.856 175.759 243.8 175.615 243.736V241.168C175.727 241.232 175.951 241.296 176.287 241.36C176.623 241.424 176.927 241.456 177.199 241.456C177.999 241.456 178.655 241.192 179.167 240.664C179.695 240.136 180.183 239.248 180.631 238H179.335L174.823 226.36L173.743 226.048V224.656H180.343V226.048L178.591 226.336L180.727 232.984L181.591 235.816L182.335 232.984L184.303 226.336L182.791 226.048V224.656H187.999V226.048L186.823 226.336C185.943 229.024 185.071 231.616 184.207 234.112C183.343 236.608 182.839 238.008 182.695 238.312C182.183 239.656 181.695 240.728 181.231 241.528C180.767 242.328 180.215 242.936 179.575 243.352C178.935 243.768 178.159 243.976 177.247 243.976ZM190.261 220.456L188.485 220.144V218.848L192.925 218.32H192.973L193.621 218.776V236.368L195.373 236.56V238H188.581V236.56L190.261 236.344V220.456ZM203.073 238.264C200.961 238.264 199.385 237.648 198.345 236.416C197.321 235.168 196.809 233.472 196.809 231.328C196.809 229.888 197.073 228.64 197.601 227.584C198.145 226.528 198.905 225.72 199.881 225.16C200.857 224.6 201.985 224.32 203.265 224.32C204.865 224.32 206.097 224.744 206.961 225.592C207.825 226.424 208.273 227.616 208.305 229.168C208.305 230.224 208.241 231.008 208.113 231.52H200.313C200.377 232.976 200.721 234.112 201.345 234.928C201.969 235.728 202.857 236.128 204.009 236.128C204.633 236.128 205.273 236.024 205.929 235.816C206.601 235.608 207.129 235.36 207.513 235.072L208.113 236.392C207.681 236.856 206.977 237.288 206.001 237.688C205.041 238.072 204.065 238.264 203.073 238.264ZM204.945 230.08C204.977 229.632 204.993 229.288 204.993 229.048C204.993 226.92 204.281 225.856 202.857 225.856C202.073 225.856 201.465 226.168 201.033 226.792C200.601 227.416 200.361 228.512 200.313 230.08H204.945Z" fill="white"/>
<path d="M131 198.5C137.8 197.7 143.37 196 145 183.5C148 160.5 140.3 115.3 141.5 106.5C142.7 97.7 146.333 100.833 148 103.5C149.167 105.667 157.1 118.1 179.5 150.5C207.5 191 228.648 176.439 236.5 169C246 160 246.167 144.333 246 127C245.833 109.667 241.9 69.6 217.5 36C193.1 2.40002 180 3.49999 177.5 8.99998C176.833 16.5 180.4 37.2 192 54C206.5 75 213.5 112.682 213.5 127C213.5 137.5 209.167 133.667 205.5 130L140.5 51C134.333 44.1667 120.5 38.7 114.5 71.5C107 112.5 108 135.5 109.5 158.5C111 181.5 122.5 199.5 131 198.5Z" fill="#F3F609"/>
<path d="M74.5 79.5C67.5 36 49.3333 34.3333 36.5 36L40.75 93.25C40.3333 116.5 41 167.1 47 183.5C54.5 204 64 209 74.5 206C82.9 203.6 86.5 200 86.5 193L84.5 164C81 136.333 74.9 80.7 74.5 79.5Z" fill="#F3F609"/>
</svg>
